General
Unique ID                        : 231157901088023859464367611225325682821 (0xADE764719EDFC22DA8BA7556141BC085)
Complete name                    : C:\UPs\Star.Trek.2009.BluRay.1080p.AC3-Lorinsion\Star.Trek.2009.BluRay.1080p.AC3-Lorinsion.mkv
Format                           : Matroska
File size                        : 4.20 GiB
Duration                         : 2h 6mn
Overall bit rate                 : 4 735 Kbps
Movie name                       : Star Trek LOR
Encoded date                     : UTC 2011-01-11 16:09:59
Writing application              : mkvmerge v4.3.0 ('Escape from the Island') built on Sep  5 2010 10:30:51
Writing library                  : libebml v1.0.0 + libmatroska v1.0.0

Video
ID                               : 1
Format                           : AVC
Format/Info                      : Advanced Video Codec
Format profile                   : High@L4.0
Format settings, CABAC           : Yes
Format settings, ReFrames        : 3 frames
Codec ID                         : V_MPEG4/ISO/AVC
Duration                         : 2h 6mn
Bit rate mode                    : Variable
Bit rate                         : 4 096 Kbps
Maximum bit rate                 : 25.0 Mbps
Width                            : 1 920 pixels
Height                           : 800 pixels
Display aspect ratio             : 2.40:1
Frame rate                       : 23.976 fps
Color space                      : YUV
Chroma subsampling               : 4:2:0
Bit depth                        : 8 bits
Scan type                        : Progressive
Bits/(Pixel*Frame)               : 0.111
Stream size                      : 3.54 GiB (84%)
Writing library                  : x264 core 105 r1732 2b04482
Encoding settings                : cabac=1 / ref=3 / deblock=1:0:0 / analyse=0x3:0x133 / me=umh / subme=7 / psy=1 / psy_rd=1.00:0.00 / mixed_ref=1 / me_range=16 / chroma_me=1 / trellis=1 / 8x8dct=1 / cqm=0 / deadzone=21,11 / fast_pskip=1 / chroma_qp_offset=-2 / threads=9 / sliced_threads=0 / nr=0 / decimate=1 / interlaced=0 / constrained_intra=0 / bframes=3 / b_pyramid=0 / b_adapt=1 / b_bias=0 / direct=1 / weightb=1 / open_gop=0 / weightp=2 / keyint=240 / keyint_min=24 / scenecut=40 / intra_refresh=0 / rc_lookahead=40 / rc=2pass / mbtree=1 / bitrate=4096 / ratetol=1.0 / qcomp=0.60 / qpmin=10 / qpmax=51 / qpstep=4 / cplxblur=20.0 / qblur=0.5 / vbv_maxrate=25000 / vbv_bufsize=25000 / ip_ratio=1.40 / aq=1:1.00 / nal_hrd=vbr

Audio
ID                               : 2
Format                           : AC-3
Format/Info                      : Audio Coding 3
Mode extension                   : CM (complete main)
Codec ID                         : A_AC3
Duration                         : 2h 6mn
Bit rate mode                    : Constant
Bit rate                         : 640 Kbps
Channel(s)                       : 6 channels
Channel positions                : Front: L C R, Side: L R, LFE
Sampling rate                    : 48.0 KHz
Bit depth                        : 16 bits
Compression mode                 : Lossy
Stream size                      : 581 MiB (14%)
Language                         : English

Menu
00:00:00.000                     : en:00:00:00.000
00:11:57.216                     : en:00:11:57.216
00:19:45.101                     : en:00:19:45.101
00:28:09.104                     : en:00:28:09.104
00:35:33.506                     : en:00:35:33.506
00:44:10.398                     : en:00:44:10.398
00:52:21.722                     : en:00:52:21.722
01:01:33.607                     : en:01:01:33.607
01:11:40.087                     : en:01:11:40.087
01:20:39.501                     : en:01:20:39.501
01:27:35.292                     : en:01:27:35.292
01:36:29.575                     : en:01:36:29.575
01:44:34.268                     : en:01:44:34.268
01:53:13.412                     : en:01:53:13.412
01:58:20.552                     : en:01:58:20.552

